<?xml version="1.0" standalone="no"?>
<!DOCTYPE svg PUBLIC "-//W3C//DTD SVG 20010904//EN"
 "http://www.w3.org/TR/2001/REC-SVG-20010904/DTD/svg10.dtd">
<svg version="1.0" xmlns="http://www.w3.org/2000/svg"
 width="500.000000pt" height="500.000000pt" viewBox="0 0 500.000000 500.000000"
 preserveAspectRatio="xMidYMid meet">
<metadata>
Created by potrace 1.11, written by Peter Selinger 2001-2013
</metadata>
<g transform="translate(0.000000,500.000000) scale(0.100000,-0.100000)"
fill="#000000" stroke="none">
<path d="M807 4934 c-1 -1 -37 -4 -80 -7 -91 -8 -198 -37 -265 -74 -26 -14
-60 -32 -75 -40 -41 -22 -168 -149 -207 -206 -58 -87 -98 -191 -116 -304 -9
-52 -8 -3533 0 -3606 18 -151 93 -296 215 -417 117 -115 237 -176 411 -206 47
-8 3566 -8 3610 1 321 59 551 286 610 604 7 36 10 673 10 1830 -1 1900 1 1836
-50 1956 -46 112 -82 167 -165 250 -101 102 -222 168 -365 199 -67 15 -249 17
-1803 19 -951 1 -1729 1 -1730 1z m914 -1254 c5 0 5 -1275 1 -1290 -1 -3 -202
-5 -447 -5 l-445 0 0 647 0 648 318 2 c252 2 533 2 573 -2z m1607 -5 c4 -3 7
-294 7 -646 0 -561 -2 -639 -15 -640 -94 -6 -873 -2 -877 5 -4 5 -6 296 -7
647 l-1 638 55 3 c102 5 832 -1 838 -7z m868 -2014 c1 -193 -2 -354 -7 -356
-4 -3 -102 -5 -218 -5 l-210 0 0 -168 c0 -92 0 -193 -1 -224 l0 -58 -1455 0
c-800 0 -1456 3 -1456 8 -1 4 -2 264 -3 579 l-1 572 25 3 c14 2 768 3 1675 2
l1650 -1 1 -352z"/>
</g>
</svg>
