<?xml version="1.0" encoding="UTF-8" standalone="no"?>
<!DOCTYPE svg PUBLIC "-//W3C//DTD SVG 1.1//EN" "http://www.w3.org/Graphics/SVG/1.1/DTD/svg11.dtd">
<svg width="100%" height="100%" viewBox="0 0 500 500" version="1.1" xmlns="http://www.w3.org/2000/svg" xmlns:xlink="http://www.w3.org/1999/xlink" xml:space="preserve" xmlns:serif="http://www.serif.com/" style="fill-rule:evenodd;clip-rule:evenodd;stroke-linejoin:round;stroke-miterlimit:2;">
    <g id="head" transform="matrix(1.07735,0,0,1.37279,-10.8975,-23.7416)">
        <path d="M466.832,75.471C466.832,46.146 436.495,22.338 399.128,22.338L83.108,22.338C45.742,22.338 15.405,46.146 15.405,75.471L15.405,323.427C15.405,352.752 45.742,376.56 83.108,376.56L399.128,376.56C436.495,376.56 466.832,352.752 466.832,323.427L466.832,75.471Z" style="fill:rgb(255,187,68);"/>
    </g>
    <g id="eyes">
        <rect x="82.932" y="131.847" width="89.677" height="129.5"/>
        <g transform="matrix(1,0,0,1,160.852,0)">
            <rect x="82.932" y="131.847" width="89.677" height="129.5"/>
        </g>
    </g>
    <g id="mouth">
        <rect x="84.355" y="298.752" width="291.771" height="116.235" style="fill:rgb(123,27,27);"/>
        <g transform="matrix(1,0,0,1,0.0599492,-0.238085)">
            <rect x="364.847" y="298.99" width="54.908" height="71.252" style="fill:rgb(123,27,27);"/>
        </g>
    </g>
</svg>
